{"title":"Point Break 1991 BRRip 720p x264 AAC [VX] [P2PDL]","uid":7688748,"size":735800542,"categoryP":"video","categoryS":"hd___movies","magnet":"?xt=urn:btih:acf502293e0db8c85952c1b8cefc1835a1953a38&amp;dn=Point+Break+1991+BRRip+720p+x264+AAC+%5BVX%5D+%5BP2PDL%5D&amp;tr=udp%3A%2F%2Ftracker.openbittorrent.com%3A80&amp;tr=udp%3A%2F%2Fopen.demonii.com%3A1337&amp;tr=udp%3A%2F%2Ftracker.coppersurfer.tk%3A6969&amp;tr=udp%3A%2F%2Fexodus.desync.com%3A6969","seeders":5,"leechers":0,"uploader":"Vitamin_X","files":-1,"time":1349034229,"description":"\nCover:  &lt;a href=&quot;\nhttp://www.shotpix.com/images/04423541782647768515.jpg&quot; rel=&quot;nofollow&quot; target=&quot;_NEW&quot;&gt;\nhttp://www.shotpix.com/images/04423541782647768515.jpg&lt;/a&gt;\n\n\n\nRelease Title: Point Break (1991)\n\n\nRatings: 7.0/10 |  &lt;a href=&quot;\nhttp://www.imdb.com/title/tt0102685/&quot; rel=&quot;nofollow&quot; target=&quot;_NEW&quot;&gt;\nhttp://www.imdb.com/title/tt0102685/&lt;/a&gt;\n\n\nPlot: An FBI agent goes undercover to catch a gang of bank robbers who may be surfers.\n\nDirector: Kathryn Bigelow\n\nWriters: Rick King, W. Peter Iliff\n\n\nStars: Patrick Swayze, Keanu Reeves and Gary Busey\n\n\nGenre: Action | Crime | Thriller\n\n\t\t\t\t\n\nGeneral\nFormat                         : MPEG-4\nFormat profile                 : Base Media / Version 2\nCodec ID                       : mp42\nFile size                      : 698 MiB\nDuration                       : 2h 2mn\nOverall bit rate mode          : Variable\nOverall bit rate               : 799 Kbps\n\n\nVideo\nID                             : 1\nFormat                         : AVC\nDuration                       : 2h 2mn\nBit rate mode                  : Variable\nBit rate                       : 698 Kbps\nMaximum bit rate               : 50.0 Mbps\nWidth                          : 1 280 pixels\nHeight                         : 544 pixels\nDisplay aspect ratio           : 2.35:1\nFrame rate mode                : Variable\nFrame rate                     : 23.976 fps\nStream size                    : 609 MiB (87%)\n\n\nAudio\nID                             : 2\nFormat                         : AAC\nFormat/Info                    : Advanced Audio Codec\nFormat profile                 : LC\nDuration                       : 2h 2mn\nBit rate mode                  : Variable\nBit rate                       : 96.0 Kbps\nMaximum bit rate               : 167 Kbps\nChannel(s)                     : 2 channels\nChannel positions              : Front: L R\nSampling rate                  : 48.0 KHz\nStream size                    : 83.8 MiB (12%)\n\n\n\nScreens:\n\n &lt;a href=&quot;\nhttp://www.shotpix.com/images/97702665770148117689.jpg&quot; rel=&quot;nofollow&quot; target=&quot;_NEW&quot;&gt;\nhttp://www.shotpix.com/images/97702665770148117689.jpg&lt;/a&gt; &lt;a href=&quot;\nhttp://www.shotpix.com/images/24280781927383534816.jpg&quot; rel=&quot;nofollow&quot; target=&quot;_NEW&quot;&gt;\nhttp://www.shotpix.com/images/24280781927383534816.jpg&lt;/a&gt; &lt;a href=&quot;\nhttp://www.shotpix.com/images/08763859824481638641.jpg&quot; rel=&quot;nofollow&quot; target=&quot;_NEW&quot;&gt;\nhttp://www.shotpix.com/images/08763859824481638641.jpg&lt;/a&gt; &lt;a href=&quot;\nhttp://www.shotpix.com/images/86924152502544961405.jpg&quot; rel=&quot;nofollow&quot; target=&quot;_NEW&quot;&gt;\nhttp://www.shotpix.com/images/86924152502544961405.jpg&lt;/a&gt;\n\n\nThumbs:\n &lt;a href=&quot;\nhttp://www.shotpix.com/images/24616019780973384596.jpg&quot; rel=&quot;nofollow&quot; target=&quot;_NEW&quot;&gt;\nhttp://www.shotpix.com/images/24616019780973384596.jpg&lt;/a&gt;\n\n\n\n------------------------------------------------------------------------\n\n\nNotes:\n\n* Best played on VLC Media Player.\n* Install shark007 codecs in case of any kind of problem in playback (For non-VLC Media Player users).\n* Alternatively, install Core AVC codecs, the fastest decoder that there is coupled with Community Center Codec Pack and play on Windows Media Player Classic.\n* Read NFO\n* Help in seeding this torrent as much as you can. \n\n\n\n\nGreets to: srkfan, VYTO, MgB, staff members at ExtraTorrent, TPB,KAT, 1337x, PublicHD, Ahashare,\nSilverTorrent, TorrentMafia, P2PDL, and all others\n\n\nEncoder Notes: Looking For Early Access To Anything You Can Provide DVDScr, R5, DVDRips, BluRay, Direct Audio, Early Music\nReleases, Seedboxes, Links, Dedicated Servers anything u can provide, Advance / Promo CDs/DVDs. If You Got anything to\noffer contact me at &quot;&lt;a class=&quot;__cf_email__&quot; href=&quot;/cdn-cgi/l/email-protection&quot; data-cfemail=&quot;791a16170d181a0d390d10170014571c0c&quot;&gt;[email&amp;#160;protected]&lt;/a&gt;&lt;script cf-hash='f9e31' type=&quot;text/javascript&quot;&gt;\n/* &lt;![CDATA[ */!function(){try{var t=&quot;currentScript&quot;in document?document.currentScript:function(){for(var t=document.getElementsByTagName(&quot;script&quot;),e=t.length;e--;)if(t[e].getAttribute(&quot;cf-hash&quot;))return t[e]}();if(t&amp;&amp;t.previousSibling){var e,r,n,i,c=t.previousSibling,a=c.getAttribute(&quot;data-cfemail&quot;);if(a){for(e=&quot;&quot;,r=parseInt(a.substr(0,2),16),n=2;a.length-n;n+=2)i=parseInt(a.substr(n,2),16)^r,e+=String.fromCharCode(i);e=document.createTextNode(e),c.parentNode.replaceChild(e,c)}}}catch(u){}}();/* ]]&gt; */&lt;/script&gt;&quot;\n\n\nFacebook Fan Page: http: // www . facebook . com / p2pdl\n\n                                 Enjoy!","torrent":{"xt":"urn:btih:acf502293e0db8c85952c1b8cefc1835a1953a38","amp;dn":"Point+Break+1991+BRRip+720p+x264+AAC+%5BVX%5D+%5BP2PDL%5D","amp;tr":["udp%3A%2F%2Ftracker.openbittorrent.com%3A80","udp%3A%2F%2Fopen.demonii.com%3A1337","udp%3A%2F%2Ftracker.coppersurfer.tk%3A6969","udp%3A%2F%2Fexodus.desync.com%3A6969"],"infoHash":"acf502293e0db8c85952c1b8cefc1835a1953a38","infoHashBuffer":{"type":"Buffer","data":[172,245,2,41,62,13,184,200,89,82,193,184,206,252,24,53,161,149,58,56]},"announce":[],"urlList":[]}}